<?xml version="1.0" encoding="UTF-8"?><svg id="Layer_2" xmlns="http://www.w3.org/2000/svg" width="124.7" height="99.16" viewBox="0 0 124.7 99.16"><defs><style>.cls-1{stroke:#231f20;stroke-miterlimit:10;stroke-width:2px;}.cls-1,.cls-2{fill:#fff;}.cls-2,.cls-3{stroke-width:0px;}.cls-3{fill:#231f20;}</style></defs><g id="Layer_3"><rect class="cls-1" x="1" y="1" width="122.7" height="97.16"/><rect class="cls-3" x="13.06" y="10.2" width="50.35" height="76.75"/><path class="cls-2" d="M26.91,27.68c.08-.92.32-1.63.72-2.13.4-.5,1.16-.83,2.28-.99.56-.08,1.4-.15,2.52-.21,1.12-.06,2.31-.1,3.57-.12,1.26-.02,2.33-.03,3.21-.03,3.88,0,7.3.57,10.26,1.71,2.96,1.14,5.29,2.78,6.99,4.92,1.7,2.14,2.55,4.75,2.55,7.83,0,2.48-.57,4.65-1.71,6.51-1.14,1.86-2.65,3.39-4.53,4.59-1.88,1.2-3.9,2.1-6.06,2.7-2.16.6-4.28.9-6.36.9-.96,0-1.8-.03-2.52-.09-.72-.06-1.42-.15-2.1-.27-.12,2.84-.23,5.55-.33,8.13-.1,2.58-.21,5.15-.33,7.71-.04,1.2-.57,2.03-1.59,2.49-1.02.46-2.29.69-3.81.69-1.8,0-3.05-.3-3.75-.9-.7-.6-1.03-1.5-.99-2.7.44-6.72.73-13.52.87-20.4.14-6.88.51-13.66,1.11-20.34ZM36.21,45.62c.68.16,1.29.27,1.83.33.54.06,1.17.09,1.89.09,1.2,0,2.32-.19,3.36-.57,1.04-.38,1.96-.91,2.76-1.59.8-.68,1.43-1.47,1.89-2.37.46-.9.69-1.89.69-2.97s-.19-1.96-.57-2.76c-.38-.8-.93-1.5-1.65-2.1-.72-.6-1.59-1.06-2.61-1.38-1.02-.32-2.13-.48-3.33-.48-.76,0-1.43.03-2.01.09-.58.06-1.11.13-1.59.21-.08,1.36-.15,2.7-.21,4.02-.06,1.32-.13,2.73-.21,4.23-.08,1.5-.16,3.25-.24,5.25Z"/><path class="cls-3" d="M99.87,72.02c-.92,0-1.83-.17-2.73-.51-.9-.34-1.51-1.03-1.83-2.07-.44-1.4-.86-2.72-1.26-3.96-.4-1.24-.8-2.47-1.2-3.69-.4-1.22-.82-2.52-1.26-3.9-.44-1.38-.94-2.95-1.5-4.71-1.2,2.88-2.18,5.34-2.94,7.38-.76,2.04-1.36,3.77-1.8,5.19-.44,1.42-.88,2.65-1.32,3.69-.32.8-.81,1.37-1.47,1.71-.66.34-1.36.54-2.1.6-.74.06-1.37.09-1.89.09-1.16,0-2.09-.25-2.79-.75-.7-.5-1.17-1.27-1.41-2.31-.6-2.96-1.4-5.89-2.4-8.79-1-2.9-2-5.83-3-8.79-1-2.96-1.84-5.98-2.52-9.06-.04-.32-.08-.57-.12-.75-.04-.18-.06-.41-.06-.69,0-.56.4-1.17,1.2-1.83.8-.66,1.98-.97,3.54-.93,1.32.04,2.3.25,2.94.63.64.38,1.08.99,1.32,1.83.44,1.6.84,3.07,1.2,4.41.36,1.34.72,2.66,1.08,3.96s.74,2.72,1.14,4.26c.4,1.54.86,3.35,1.38,5.43.96-2.4,1.77-4.48,2.43-6.24.66-1.76,1.26-3.43,1.8-5.01.54-1.58,1.11-3.27,1.71-5.07-.08-1.12.15-2.01.69-2.67.54-.66,1.23-1.13,2.07-1.41.84-.28,1.7-.42,2.58-.42,1.12,0,2.07.21,2.85.63.78.42,1.25.97,1.41,1.65.32,1.08.57,2.09.75,3.03.18.94.43,2.03.75,3.27.28,1.2.54,2.27.78,3.21.24.94.48,1.85.72,2.73.24.88.5,1.82.78,2.82.28,1,.6,2.14.96,3.42.68-2.52,1.31-4.73,1.89-6.63.58-1.9,1.2-3.79,1.86-5.67.66-1.88,1.39-3.96,2.19-6.24.28-.8.72-1.36,1.32-1.68.6-.32,1.3-.48,2.1-.48,1.64,0,2.84.31,3.6.93.76.62,1.14,1.45,1.14,2.49,0,.24-.03.46-.09.66-.06.2-.13.42-.21.66-1.08,3.08-2.13,6.04-3.15,8.88-1.02,2.84-2.01,5.69-2.97,8.55-.96,2.86-1.92,5.89-2.88,9.09-.24.8-.75,1.51-1.53,2.13-.78.62-2.03.93-3.75.93Z"/></g></svg>